<?xml version="1.0" encoding="UTF-8"?><svg id="a" xmlns="http://www.w3.org/2000/svg" viewBox="0 0 465.023 357.692"><polygon points="282.933 310.052 282.933 310.052 280.157 323.049 264.389 328.597 249.511 323.11 245.844 310.052 245.844 310.052 245.912 310.052 245.912 124.437 216.749 124.437 216.749 310.052 216.749 310.052 226.845 340.147 264.389 357.692 300.721 340.868 312.029 310.052 312.029 310.052 282.933 310.052" style="fill:#1a1a1a;"/><polygon points="232.511 0 73.638 69.577 17.357 202.626 140.919 202.626 232.511 0" style="fill:#3fa9f5;"/><polygon points="232.511 0 391.385 69.577 447.665 202.626 324.104 202.626 232.511 0" style="fill:#ff931e;"/><polygon points="232.511 0 140.919 202.626 324.104 202.626 232.511 0" style="fill:#7ac943;"/><polygon points="65.4 296.756 32.728 240.118 0 296.732 0 296.732 0 323.821 19.155 342.976 46.245 342.976 65.4 323.821 65.4 296.756 65.4 296.756" style="fill:#29abe2;"/><polygon points="465.023 296.756 432.351 240.118 399.623 296.732 399.623 296.732 399.623 323.821 418.778 342.976 445.868 342.976 465.023 323.821 465.023 296.756 465.023 296.756" style="fill:#29abe2;"/></svg>